<svg xmlns="http://www.w3.org/2000/svg" viewBox="0 0 1200 720" role="img" aria-labelledby="title desc">
  <title id="title">Cosmic Vanguard cover</title>
  <desc id="desc">Original cover art for the Cosmic Vanguard arcade game.</desc>
  <defs>
    <linearGradient id="bg" x1="0" y1="0" x2="1" y2="1">
      <stop offset="0%" stop-color="#050816"/>
      <stop offset="55%" stop-color="#0f1d46"/>
      <stop offset="100%" stop-color="#1d4ed8"/>
    </linearGradient>
    <radialGradient id="nebulaA" cx="20%" cy="24%" r="48%">
      <stop offset="0%" stop-color="#22d3ee" stop-opacity="0.95"/>
      <stop offset="55%" stop-color="#1d4ed8" stop-opacity="0.38"/>
      <stop offset="100%" stop-color="#1d4ed8" stop-opacity="0"/>
    </radialGradient>
    <radialGradient id="nebulaB" cx="82%" cy="30%" r="36%">
      <stop offset="0%" stop-color="#f97316" stop-opacity="0.72"/>
      <stop offset="100%" stop-color="#f97316" stop-opacity="0"/>
    </radialGradient>
    <linearGradient id="ship" x1="0" y1="0" x2="0" y2="1">
      <stop offset="0%" stop-color="#f8fafc"/>
      <stop offset="100%" stop-color="#7dd3fc"/>
    </linearGradient>
    <linearGradient id="engine" x1="0" y1="0" x2="0" y2="1">
      <stop offset="0%" stop-color="#fbbf24"/>
      <stop offset="100%" stop-color="#f97316"/>
    </linearGradient>
    <filter id="glow" x="-30%" y="-30%" width="160%" height="160%">
      <feGaussianBlur stdDeviation="14" result="blur"/>
      <feMerge>
        <feMergeNode in="blur"/>
        <feMergeNode in="SourceGraphic"/>
      </feMerge>
    </filter>
  </defs>

  <rect width="1200" height="720" fill="url(#bg)"/>
  <rect width="1200" height="720" fill="url(#nebulaA)"/>
  <rect width="1200" height="720" fill="url(#nebulaB)"/>

  <g fill="#ffffff" opacity="0.82">
    <circle cx="92" cy="108" r="2"/>
    <circle cx="214" cy="84" r="1.8"/>
    <circle cx="330" cy="168" r="1.4"/>
    <circle cx="488" cy="96" r="2.2"/>
    <circle cx="642" cy="132" r="1.8"/>
    <circle cx="860" cy="92" r="1.5"/>
    <circle cx="1098" cy="146" r="2.1"/>
    <circle cx="1018" cy="224" r="1.4"/>
    <circle cx="872" cy="196" r="1.6"/>
    <circle cx="176" cy="256" r="2.2"/>
    <circle cx="280" cy="328" r="1.3"/>
    <circle cx="114" cy="382" r="1.8"/>
    <circle cx="964" cy="412" r="2.1"/>
    <circle cx="1048" cy="502" r="1.5"/>
    <circle cx="898" cy="580" r="1.6"/>
    <circle cx="722" cy="620" r="1.4"/>
  </g>

  <g opacity="0.9">
    <path d="M80 560c98-84 214-122 344-114 66 4 116 12 190 34" fill="none" stroke="#22d3ee" stroke-width="10" stroke-linecap="round"/>
    <path d="M642 486c52 12 118 40 160 84" fill="none" stroke="#f97316" stroke-width="8" stroke-linecap="round"/>
  </g>

  <g transform="translate(648 360) scale(1.18)" filter="url(#glow)">
    <path d="M0-154 92 116 0 54-92 116Z" fill="url(#ship)"/>
    <path d="M0-112 42 62 0 26-42 62Z" fill="#0f172a" opacity="0.9"/>
    <path d="M-18-62H18V30H-18Z" fill="#22d3ee" opacity="0.95"/>
    <path d="M-42 124 0 226 42 124Z" fill="url(#engine)"/>
    <circle cx="0" cy="18" r="122" fill="none" stroke="#38bdf8" stroke-width="8" opacity="0.48"/>
  </g>

  <g transform="translate(316 244) rotate(-24)">
    <path d="M0-54 30 40 0 16-30 40Z" fill="#fb7185"/>
    <path d="M-11-14H11V26H-11Z" fill="#fee2e2" opacity="0.9"/>
  </g>
  <g transform="translate(904 244) rotate(22)">
    <path d="M0-64 36 48 0 18-36 48Z" fill="#a78bfa"/>
    <path d="M-12-18H12V30H-12Z" fill="#ede9fe" opacity="0.9"/>
  </g>

  <g transform="translate(944 506)">
    <path d="M0-84 68 0 0 84-68 0Z" fill="#facc15" opacity="0.92"/>
    <circle cx="0" cy="0" r="26" fill="#0f172a"/>
  </g>

  <g fill="#cbd5e1" opacity="0.82">
    <path d="M150 470c18-22 54-32 84-20 30 14 44 44 34 72-12 34-54 50-92 34-32-14-42-54-26-86Z"/>
    <path d="M1066 418c16-18 46-28 70-16 28 12 42 38 34 62-10 30-46 46-78 34-28-10-38-46-26-80Z"/>
  </g>

  <g transform="translate(88 104)">
    <rect width="512" height="172" rx="28" fill="#020617" opacity="0.54"/>
    <text x="34" y="72" fill="#f8fafc" font-family="Bricolage Grotesque, Arial, sans-serif" font-size="66" font-weight="800">COSMIC</text>
    <text x="34" y="134" fill="#7dd3fc" font-family="Bricolage Grotesque, Arial, sans-serif" font-size="66" font-weight="800">VANGUARD</text>
    <text x="36" y="164" fill="#cbd5e1" font-family="Outfit, Arial, sans-serif" font-size="22">Arcade sector assault with adaptive fleets and leaderboard ops</text>
  </g>
</svg>
