<svg width="640" height="360" viewBox="0 0 640 360" fill="none" xmlns="http://www.w3.org/2000/svg">
  <defs>
    <linearGradient id="bg" x1="0" y1="0" x2="640" y2="360" gradientUnits="userSpaceOnUse">
      <stop offset="0" stop-color="#0F172A"/>
      <stop offset="1" stop-color="#115E59"/>
    </linearGradient>
    <linearGradient id="track" x1="0" y1="254" x2="640" y2="338" gradientUnits="userSpaceOnUse">
      <stop offset="0" stop-color="#111827"/>
      <stop offset="1" stop-color="#1E293B"/>
    </linearGradient>
    <linearGradient id="hero" x1="268" y1="136" x2="322" y2="196" gradientUnits="userSpaceOnUse">
      <stop offset="0" stop-color="#86EFAC"/>
      <stop offset="1" stop-color="#22D3EE"/>
    </linearGradient>
    <linearGradient id="obsFloor" x1="430" y1="182" x2="470" y2="286" gradientUnits="userSpaceOnUse">
      <stop offset="0" stop-color="#FDE68A"/>
      <stop offset="1" stop-color="#D97706"/>
    </linearGradient>
    <linearGradient id="obsCeil" x1="466" y1="54" x2="512" y2="186" gradientUnits="userSpaceOnUse">
      <stop offset="0" stop-color="#E0F2FE"/>
      <stop offset="1" stop-color="#0284C7"/>
    </linearGradient>
  </defs>

  <rect width="640" height="360" rx="32" fill="url(#bg)"/>
  <circle cx="564" cy="84" r="90" fill="#22D3EE" fill-opacity="0.17"/>
  <circle cx="100" cy="324" r="110" fill="#34D399" fill-opacity="0.14"/>

  <g opacity="0.28" fill="#CBD5E1">
    <path d="M18 274L92 170L168 274H18Z"/>
    <path d="M136 274L216 162L296 274H136Z"/>
    <path d="M274 274L350 166L428 274H274Z"/>
  </g>

  <g stroke="#67E8F9" stroke-opacity="0.45" stroke-width="2">
    <line x1="74" y1="34" x2="74" y2="298"/>
    <line x1="214" y1="34" x2="214" y2="298"/>
    <line x1="354" y1="34" x2="354" y2="298"/>
    <line x1="494" y1="34" x2="494" y2="298"/>
  </g>

  <rect x="0" y="254" width="640" height="106" fill="url(#track)"/>
  <rect x="-4" y="264" width="648" height="8" fill="#1E293B"/>

  <path d="M430 188H468L476 286H422L430 188Z" fill="url(#obsFloor)" stroke="#0F172A" stroke-width="2"/>
  <path d="M468 34H516L508 186H476L468 34Z" fill="url(#obsCeil)" stroke="#0F172A" stroke-width="2"/>

  <g transform="translate(292 166)">
    <path d="M0 -26L20 -10L22 16L0 30L-22 16L-20 -10Z" fill="url(#hero)" stroke="#0F172A" stroke-width="3"/>
    <circle cx="0" cy="4" r="7" fill="#E0F2FE"/>
  </g>

  <g opacity="0.45" fill="#7DD3FC">
    <rect x="240" y="168" width="10" height="3"/>
    <rect x="228" y="170" width="8" height="3"/>
    <rect x="216" y="171" width="7" height="3"/>
    <rect x="205" y="172" width="6" height="3"/>
  </g>

  <g>
    <path d="M388 132L400 120L412 132L400 144L388 132Z" fill="#38BDF8" stroke="#E0F2FE" stroke-width="2"/>
    <path d="M344 158L354 148L364 158L354 168L344 158Z" fill="#38BDF8" stroke="#E0F2FE" stroke-width="2"/>
  </g>

  <rect x="118" y="38" width="404" height="48" rx="14" fill="rgba(2, 6, 23, 0.62)" stroke="#67E8F9" stroke-opacity="0.6"/>
  <text x="320" y="68" text-anchor="middle" fill="#F8FAFC" font-family="Arial, sans-serif" font-size="22" font-weight="700">
    Pulse Prism Runner
  </text>

  <rect x="128" y="304" width="384" height="34" rx="10" fill="rgba(2, 6, 23, 0.7)" stroke="#FCD34D" stroke-opacity="0.6"/>
  <text x="320" y="326" text-anchor="middle" fill="#E2E8F0" font-family="Arial, sans-serif" font-size="15" font-weight="600">
    Original rhythm-action platformer
  </text>
</svg>
