<svg xmlns="http://www.w3.org/2000/svg" width="960" height="540" viewBox="0 0 960 540" fill="none">
  <defs>
    <linearGradient id="bg" x1="80" y1="40" x2="880" y2="500" gradientUnits="userSpaceOnUse">
      <stop offset="0" stop-color="#f4efe2"/>
      <stop offset="1" stop-color="#d8c7a3"/>
    </linearGradient>
    <linearGradient id="panel" x1="160" y1="90" x2="520" y2="450" gradientUnits="userSpaceOnUse">
      <stop offset="0" stop-color="#2f2520"/>
      <stop offset="1" stop-color="#1c1512"/>
    </linearGradient>
    <linearGradient id="pieceW" x1="0" y1="0" x2="0" y2="1">
      <stop offset="0" stop-color="#fff8eb"/>
      <stop offset="1" stop-color="#e9dcc5"/>
    </linearGradient>
    <linearGradient id="pieceB" x1="0" y1="0" x2="0" y2="1">
      <stop offset="0" stop-color="#2f2f34"/>
      <stop offset="1" stop-color="#1b1b20"/>
    </linearGradient>
  </defs>

  <rect width="960" height="540" rx="28" fill="url(#bg)"/>
  <rect x="80" y="58" width="510" height="424" rx="28" fill="url(#panel)"/>
  <rect x="112" y="90" width="446" height="360" rx="18" fill="#14100f"/>

  <g transform="translate(124 102)">
    <rect width="422" height="336" rx="12" fill="#f7e6c7"/>
    <g>
      <rect x="0" y="0" width="52.75" height="42" fill="#f2e6cf"/>
      <rect x="105.5" y="0" width="52.75" height="42" fill="#f2e6cf"/>
      <rect x="211" y="0" width="52.75" height="42" fill="#f2e6cf"/>
      <rect x="316.5" y="0" width="52.75" height="42" fill="#f2e6cf"/>
      <rect x="52.75" y="42" width="52.75" height="42" fill="#b28a58"/>
      <rect x="158.25" y="42" width="52.75" height="42" fill="#b28a58"/>
      <rect x="263.75" y="42" width="52.75" height="42" fill="#b28a58"/>
      <rect x="369.25" y="42" width="52.75" height="42" fill="#b28a58"/>
      <rect x="0" y="84" width="52.75" height="42" fill="#b28a58"/>
      <rect x="105.5" y="84" width="52.75" height="42" fill="#b28a58"/>
      <rect x="211" y="84" width="52.75" height="42" fill="#b28a58"/>
      <rect x="316.5" y="84" width="52.75" height="42" fill="#b28a58"/>
      <rect x="52.75" y="126" width="52.75" height="42" fill="#f2e6cf"/>
      <rect x="158.25" y="126" width="52.75" height="42" fill="#f2e6cf"/>
      <rect x="263.75" y="126" width="52.75" height="42" fill="#f2e6cf"/>
      <rect x="369.25" y="126" width="52.75" height="42" fill="#f2e6cf"/>
      <rect x="0" y="168" width="52.75" height="42" fill="#f2e6cf"/>
      <rect x="105.5" y="168" width="52.75" height="42" fill="#f2e6cf"/>
      <rect x="211" y="168" width="52.75" height="42" fill="#f2e6cf"/>
      <rect x="316.5" y="168" width="52.75" height="42" fill="#f2e6cf"/>
      <rect x="52.75" y="210" width="52.75" height="42" fill="#b28a58"/>
      <rect x="158.25" y="210" width="52.75" height="42" fill="#b28a58"/>
      <rect x="263.75" y="210" width="52.75" height="42" fill="#b28a58"/>
      <rect x="369.25" y="210" width="52.75" height="42" fill="#b28a58"/>
      <rect x="0" y="252" width="52.75" height="42" fill="#b28a58"/>
      <rect x="105.5" y="252" width="52.75" height="42" fill="#b28a58"/>
      <rect x="211" y="252" width="52.75" height="42" fill="#b28a58"/>
      <rect x="316.5" y="252" width="52.75" height="42" fill="#b28a58"/>
      <rect x="52.75" y="294" width="52.75" height="42" fill="#f2e6cf"/>
      <rect x="158.25" y="294" width="52.75" height="42" fill="#f2e6cf"/>
      <rect x="263.75" y="294" width="52.75" height="42" fill="#f2e6cf"/>
      <rect x="369.25" y="294" width="52.75" height="42" fill="#f2e6cf"/>
    </g>
  </g>

  <g transform="translate(653 96)">
    <rect width="230" height="348" rx="20" fill="#f8f0df"/>
    <rect x="14" y="14" width="202" height="88" rx="14" fill="#fff7e8"/>
    <rect x="14" y="118" width="202" height="96" rx="14" fill="#f6ebd2"/>
    <rect x="14" y="230" width="202" height="104" rx="14" fill="#fff7e8"/>

    <text x="30" y="48" fill="#6d4d22" font-family="Outfit, Arial, sans-serif" font-size="24" font-weight="700">Ajedrez Pro</text>
    <text x="30" y="76" fill="#87603a" font-family="Outfit, Arial, sans-serif" font-size="16" font-weight="600">IA multDificultad</text>

    <g transform="translate(36 144)">
      <circle cx="24" cy="24" r="20" fill="url(#pieceW)" stroke="#b39a76"/>
      <text x="24" y="31" text-anchor="middle" fill="#5e3e16" font-family="Bricolage Grotesque, Arial, sans-serif" font-size="22" font-weight="800">D</text>
      <circle cx="92" cy="24" r="20" fill="url(#pieceB)" stroke="#101014"/>
      <text x="92" y="31" text-anchor="middle" fill="#f0e8dc" font-family="Bricolage Grotesque, Arial, sans-serif" font-size="22" font-weight="800">R</text>
      <circle cx="160" cy="24" r="20" fill="url(#pieceW)" stroke="#b39a76"/>
      <text x="160" y="31" text-anchor="middle" fill="#5e3e16" font-family="Bricolage Grotesque, Arial, sans-serif" font-size="22" font-weight="800">C</text>
    </g>

    <text x="30" y="270" fill="#6f5330" font-family="Outfit, Arial, sans-serif" font-size="14" font-weight="600">Reglas FIDE</text>
    <text x="30" y="292" fill="#6f5330" font-family="Outfit, Arial, sans-serif" font-size="14" font-weight="600">Promocion y enroque</text>
    <text x="30" y="314" fill="#6f5330" font-family="Outfit, Arial, sans-serif" font-size="14" font-weight="600">Repeticion y 50/75</text>
  </g>
</svg>
