<svg width="150" height="210" viewBox="0 0 150 210" fill="none" xmlns="http://www.w3.org/2000/svg">
  <defs>
    <linearGradient id="goalPostR" x1="0" y1="0" x2="0" y2="210" gradientUnits="userSpaceOnUse">
      <stop stop-color="#FFFFFF"/>
      <stop offset="1" stop-color="#E5EEF7"/>
    </linearGradient>
  </defs>
  <rect width="150" height="210" fill="transparent"/>
  <path d="M110 18H34V188H110" stroke="url(#goalPostR)" stroke-width="10" stroke-linecap="round" stroke-linejoin="round"/>
  <path d="M136 26H110V188H136" stroke="url(#goalPostR)" stroke-width="8" stroke-linecap="round" stroke-linejoin="round"/>
  <path d="M136 26H62V18" stroke="url(#goalPostR)" stroke-width="8" stroke-linecap="round" stroke-linejoin="round"/>
  <rect x="38" y="28" width="96" height="160" fill="#F8FAFC" fill-opacity="0.18"/>
  <g opacity="0.48" stroke-width="1.6">
    <path d="M38 44H134" stroke="#A78BFA"/>
    <path d="M38 66H134" stroke="#F59E0B"/>
    <path d="M38 88H134" stroke="#38BDF8"/>
    <path d="M38 110H134" stroke="#F472B6"/>
    <path d="M38 132H134" stroke="#F59E0B"/>
    <path d="M38 154H134" stroke="#38BDF8"/>
    <path d="M38 176H134" stroke="#A78BFA"/>
    <path d="M122 18V188" stroke="#FFFFFF"/>
    <path d="M106 18V188" stroke="#FFFFFF"/>
    <path d="M90 18V188" stroke="#FFFFFF"/>
    <path d="M74 18V188" stroke="#FFFFFF"/>
    <path d="M58 18V188" stroke="#FFFFFF"/>
    <path d="M42 18V188" stroke="#FFFFFF"/>
  </g>
</svg>
