<svg width="960" height="540" viewBox="0 0 960 540" fill="none" xmlns="http://www.w3.org/2000/svg">
  <defs>
    <linearGradient id="roofSky" x1="480" y1="0" x2="480" y2="210" gradientUnits="userSpaceOnUse">
      <stop stop-color="#79D1FF"/>
      <stop offset="1" stop-color="#CBEFFF"/>
    </linearGradient>
    <linearGradient id="field" x1="480" y1="320" x2="480" y2="540" gradientUnits="userSpaceOnUse">
      <stop stop-color="#79D64B"/>
      <stop offset="1" stop-color="#149C2D"/>
    </linearGradient>
  </defs>

  <rect width="960" height="540" fill="#BDEBFF"/>
  <rect y="0" width="960" height="144" fill="url(#roofSky)"/>
  <g opacity="0.62">
    <rect x="0" y="12" width="70" height="54" fill="#7ABBE8"/>
    <rect x="78" y="12" width="70" height="54" fill="#7ABBE8"/>
    <rect x="156" y="12" width="70" height="54" fill="#7ABBE8"/>
    <rect x="234" y="12" width="70" height="54" fill="#7ABBE8"/>
    <rect x="312" y="12" width="70" height="54" fill="#7ABBE8"/>
    <rect x="390" y="12" width="70" height="54" fill="#7ABBE8"/>
    <rect x="468" y="12" width="70" height="54" fill="#7ABBE8"/>
    <rect x="546" y="12" width="70" height="54" fill="#7ABBE8"/>
    <rect x="624" y="12" width="70" height="54" fill="#7ABBE8"/>
    <rect x="702" y="12" width="70" height="54" fill="#7ABBE8"/>
    <rect x="780" y="12" width="70" height="54" fill="#7ABBE8"/>
    <rect x="858" y="12" width="70" height="54" fill="#7ABBE8"/>
    <rect x="936" y="12" width="24" height="54" fill="#7ABBE8"/>
  </g>

  <rect y="148" width="960" height="26" fill="#2D4E63"/>
  <rect y="174" width="960" height="16" fill="#51718C"/>

  <rect x="0" y="190" width="960" height="118" fill="#D0D8DE"/>
  <rect x="0" y="292" width="960" height="20" fill="#C5D1DA"/>

  <g opacity="0.92">
    <circle cx="26" cy="200" r="7" fill="#202E3F"/>
    <circle cx="26" cy="214" r="9" fill="#F97316"/>
    <circle cx="54" cy="206" r="7" fill="#202E3F"/>
    <circle cx="54" cy="220" r="9" fill="#FACC15"/>
    <circle cx="82" cy="200" r="7" fill="#202E3F"/>
    <circle cx="82" cy="214" r="9" fill="#38BDF8"/>
    <circle cx="110" cy="206" r="7" fill="#202E3F"/>
    <circle cx="110" cy="220" r="9" fill="#EF4444"/>
    <circle cx="138" cy="200" r="7" fill="#202E3F"/>
    <circle cx="138" cy="214" r="9" fill="#22C55E"/>
    <circle cx="166" cy="206" r="7" fill="#202E3F"/>
    <circle cx="166" cy="220" r="9" fill="#A855F7"/>
    <circle cx="194" cy="200" r="7" fill="#202E3F"/>
    <circle cx="194" cy="214" r="9" fill="#FB7185"/>
    <circle cx="222" cy="206" r="7" fill="#202E3F"/>
    <circle cx="222" cy="220" r="9" fill="#14B8A6"/>
    <circle cx="250" cy="200" r="7" fill="#202E3F"/>
    <circle cx="250" cy="214" r="9" fill="#F8FAFC"/>
    <circle cx="278" cy="206" r="7" fill="#202E3F"/>
    <circle cx="278" cy="220" r="9" fill="#F97316"/>
    <circle cx="306" cy="200" r="7" fill="#202E3F"/>
    <circle cx="306" cy="214" r="9" fill="#FACC15"/>
    <circle cx="334" cy="206" r="7" fill="#202E3F"/>
    <circle cx="334" cy="220" r="9" fill="#38BDF8"/>
    <circle cx="362" cy="200" r="7" fill="#202E3F"/>
    <circle cx="362" cy="214" r="9" fill="#EF4444"/>
    <circle cx="390" cy="206" r="7" fill="#202E3F"/>
    <circle cx="390" cy="220" r="9" fill="#22C55E"/>
    <circle cx="570" cy="200" r="7" fill="#202E3F"/>
    <circle cx="570" cy="214" r="9" fill="#F97316"/>
    <circle cx="598" cy="206" r="7" fill="#202E3F"/>
    <circle cx="598" cy="220" r="9" fill="#FACC15"/>
    <circle cx="626" cy="200" r="7" fill="#202E3F"/>
    <circle cx="626" cy="214" r="9" fill="#38BDF8"/>
    <circle cx="654" cy="206" r="7" fill="#202E3F"/>
    <circle cx="654" cy="220" r="9" fill="#EF4444"/>
    <circle cx="682" cy="200" r="7" fill="#202E3F"/>
    <circle cx="682" cy="214" r="9" fill="#22C55E"/>
    <circle cx="710" cy="206" r="7" fill="#202E3F"/>
    <circle cx="710" cy="220" r="9" fill="#A855F7"/>
    <circle cx="738" cy="200" r="7" fill="#202E3F"/>
    <circle cx="738" cy="214" r="9" fill="#FB7185"/>
    <circle cx="766" cy="206" r="7" fill="#202E3F"/>
    <circle cx="766" cy="220" r="9" fill="#14B8A6"/>
    <circle cx="794" cy="200" r="7" fill="#202E3F"/>
    <circle cx="794" cy="214" r="9" fill="#F8FAFC"/>
    <circle cx="822" cy="206" r="7" fill="#202E3F"/>
    <circle cx="822" cy="220" r="9" fill="#F97316"/>
    <circle cx="850" cy="200" r="7" fill="#202E3F"/>
    <circle cx="850" cy="214" r="9" fill="#FACC15"/>
    <circle cx="878" cy="206" r="7" fill="#202E3F"/>
    <circle cx="878" cy="220" r="9" fill="#38BDF8"/>
    <circle cx="906" cy="200" r="7" fill="#202E3F"/>
    <circle cx="906" cy="214" r="9" fill="#EF4444"/>
    <circle cx="934" cy="206" r="7" fill="#202E3F"/>
    <circle cx="934" cy="220" r="9" fill="#22C55E"/>
  </g>

  <g opacity="0.95">
    <circle cx="18" cy="236" r="7" fill="#202E3F"/>
    <circle cx="18" cy="250" r="9" fill="#FACC15"/>
    <circle cx="46" cy="242" r="7" fill="#202E3F"/>
    <circle cx="46" cy="256" r="9" fill="#38BDF8"/>
    <circle cx="74" cy="236" r="7" fill="#202E3F"/>
    <circle cx="74" cy="250" r="9" fill="#EF4444"/>
    <circle cx="102" cy="242" r="7" fill="#202E3F"/>
    <circle cx="102" cy="256" r="9" fill="#22C55E"/>
    <circle cx="130" cy="236" r="7" fill="#202E3F"/>
    <circle cx="130" cy="250" r="9" fill="#A855F7"/>
    <circle cx="158" cy="242" r="7" fill="#202E3F"/>
    <circle cx="158" cy="256" r="9" fill="#FB7185"/>
    <circle cx="186" cy="236" r="7" fill="#202E3F"/>
    <circle cx="186" cy="250" r="9" fill="#14B8A6"/>
    <circle cx="214" cy="242" r="7" fill="#202E3F"/>
    <circle cx="214" cy="256" r="9" fill="#F8FAFC"/>
    <circle cx="242" cy="236" r="7" fill="#202E3F"/>
    <circle cx="242" cy="250" r="9" fill="#F97316"/>
    <circle cx="270" cy="242" r="7" fill="#202E3F"/>
    <circle cx="270" cy="256" r="9" fill="#FACC15"/>
    <circle cx="298" cy="236" r="7" fill="#202E3F"/>
    <circle cx="298" cy="250" r="9" fill="#38BDF8"/>
    <circle cx="326" cy="242" r="7" fill="#202E3F"/>
    <circle cx="326" cy="256" r="9" fill="#EF4444"/>
    <circle cx="354" cy="236" r="7" fill="#202E3F"/>
    <circle cx="354" cy="250" r="9" fill="#22C55E"/>
    <circle cx="382" cy="242" r="7" fill="#202E3F"/>
    <circle cx="382" cy="256" r="9" fill="#A855F7"/>
    <circle cx="410" cy="236" r="7" fill="#202E3F"/>
    <circle cx="410" cy="250" r="9" fill="#FB7185"/>
    <circle cx="438" cy="242" r="7" fill="#202E3F"/>
    <circle cx="438" cy="256" r="9" fill="#14B8A6"/>
    <circle cx="522" cy="236" r="7" fill="#202E3F"/>
    <circle cx="522" cy="250" r="9" fill="#F97316"/>
    <circle cx="550" cy="242" r="7" fill="#202E3F"/>
    <circle cx="550" cy="256" r="9" fill="#FACC15"/>
    <circle cx="578" cy="236" r="7" fill="#202E3F"/>
    <circle cx="578" cy="250" r="9" fill="#38BDF8"/>
    <circle cx="606" cy="242" r="7" fill="#202E3F"/>
    <circle cx="606" cy="256" r="9" fill="#EF4444"/>
    <circle cx="634" cy="236" r="7" fill="#202E3F"/>
    <circle cx="634" cy="250" r="9" fill="#22C55E"/>
    <circle cx="662" cy="242" r="7" fill="#202E3F"/>
    <circle cx="662" cy="256" r="9" fill="#A855F7"/>
    <circle cx="690" cy="236" r="7" fill="#202E3F"/>
    <circle cx="690" cy="250" r="9" fill="#FB7185"/>
    <circle cx="718" cy="242" r="7" fill="#202E3F"/>
    <circle cx="718" cy="256" r="9" fill="#14B8A6"/>
    <circle cx="746" cy="236" r="7" fill="#202E3F"/>
    <circle cx="746" cy="250" r="9" fill="#F8FAFC"/>
    <circle cx="774" cy="242" r="7" fill="#202E3F"/>
    <circle cx="774" cy="256" r="9" fill="#F97316"/>
    <circle cx="802" cy="236" r="7" fill="#202E3F"/>
    <circle cx="802" cy="250" r="9" fill="#FACC15"/>
    <circle cx="830" cy="242" r="7" fill="#202E3F"/>
    <circle cx="830" cy="256" r="9" fill="#38BDF8"/>
    <circle cx="858" cy="236" r="7" fill="#202E3F"/>
    <circle cx="858" cy="250" r="9" fill="#EF4444"/>
    <circle cx="886" cy="242" r="7" fill="#202E3F"/>
    <circle cx="886" cy="256" r="9" fill="#22C55E"/>
    <circle cx="914" cy="236" r="7" fill="#202E3F"/>
    <circle cx="914" cy="250" r="9" fill="#A855F7"/>
    <circle cx="942" cy="242" r="7" fill="#202E3F"/>
    <circle cx="942" cy="256" r="9" fill="#FB7185"/>
  </g>

  <rect x="432" y="178" width="96" height="126" fill="#8D9AA4"/>
  <rect x="446" y="196" width="68" height="108" fill="#76828B"/>
  <rect x="454" y="208" width="52" height="96" fill="#65717A"/>

  <rect x="56" y="176" width="96" height="36" rx="8" fill="#57C8E8"/>
  <rect x="808" y="176" width="96" height="36" rx="8" fill="#57C8E8"/>

  <rect y="304" width="960" height="42" fill="#DDE7ED"/>
  <g opacity="0.96">
    <rect x="0" y="312" width="74" height="28" fill="#FFDE59"/>
    <rect x="74" y="312" width="112" height="28" fill="#5CC8E9"/>
    <rect x="186" y="312" width="84" height="28" fill="#FFFFFF"/>
    <rect x="270" y="312" width="78" height="28" fill="#F59E0B"/>
    <rect x="348" y="312" width="96" height="28" fill="#FDF2F8"/>
    <rect x="444" y="312" width="72" height="28" fill="#FDE68A"/>
    <rect x="516" y="312" width="98" height="28" fill="#FFFFFF"/>
    <rect x="614" y="312" width="80" height="28" fill="#FDE68A"/>
    <rect x="694" y="312" width="94" height="28" fill="#FFFFFF"/>
    <rect x="788" y="312" width="92" height="28" fill="#5CC8E9"/>
    <rect x="880" y="312" width="80" height="28" fill="#FDF2F8"/>
  </g>

  <rect y="340" width="960" height="200" fill="url(#field)"/>
  <g opacity="0.16">
    <rect y="360" width="960" height="16" fill="#0C7F25"/>
    <rect y="402" width="960" height="16" fill="#0C7F25"/>
    <rect y="444" width="960" height="16" fill="#0C7F25"/>
    <rect y="486" width="960" height="16" fill="#0C7F25"/>
  </g>

  <path d="M84 466H876" stroke="white" stroke-width="4"/>
  <path d="M480 466V540" stroke="white" stroke-width="4"/>
  <circle cx="480" cy="540" r="56" stroke="white" stroke-width="4"/>
  <path d="M54 466H906" stroke="white" stroke-width="3" opacity="0.35"/>
</svg>
