<svg width="150" height="210" viewBox="0 0 150 210" fill="none" xmlns="http://www.w3.org/2000/svg">
  <defs>
    <linearGradient id="goalPost" x1="0" y1="0" x2="0" y2="210" gradientUnits="userSpaceOnUse">
      <stop stop-color="#FFFFFF"/>
      <stop offset="1" stop-color="#E5EEF7"/>
    </linearGradient>
  </defs>
  <rect width="150" height="210" fill="transparent"/>
  <path d="M40 18H116V188H40" stroke="url(#goalPost)" stroke-width="10" stroke-linecap="round" stroke-linejoin="round"/>
  <path d="M14 26H40V188H14" stroke="url(#goalPost)" stroke-width="8" stroke-linecap="round" stroke-linejoin="round"/>
  <path d="M14 26H88V18" stroke="url(#goalPost)" stroke-width="8" stroke-linecap="round" stroke-linejoin="round"/>
  <rect x="16" y="28" width="96" height="160" fill="#F8FAFC" fill-opacity="0.18"/>
  <g opacity="0.48" stroke-width="1.6">
    <path d="M16 44H112" stroke="#A78BFA"/>
    <path d="M16 66H112" stroke="#F59E0B"/>
    <path d="M16 88H112" stroke="#38BDF8"/>
    <path d="M16 110H112" stroke="#F472B6"/>
    <path d="M16 132H112" stroke="#F59E0B"/>
    <path d="M16 154H112" stroke="#38BDF8"/>
    <path d="M16 176H112" stroke="#A78BFA"/>
    <path d="M28 26V188" stroke="#FFFFFF"/>
    <path d="M44 18V188" stroke="#FFFFFF"/>
    <path d="M60 18V188" stroke="#FFFFFF"/>
    <path d="M76 18V188" stroke="#FFFFFF"/>
    <path d="M92 18V188" stroke="#FFFFFF"/>
    <path d="M108 18V188" stroke="#FFFFFF"/>
  </g>
</svg>
