<svg width="1280" height="720" viewBox="0 0 1280 720" fill="none" xmlns="http://www.w3.org/2000/svg">
  <defs>
    <linearGradient id="bg" x1="90" y1="70" x2="1190" y2="650" gradientUnits="userSpaceOnUse">
      <stop stop-color="#2E1065"/>
      <stop offset="1" stop-color="#581C87"/>
    </linearGradient>
  </defs>
  <rect width="1280" height="720" fill="url(#bg)"/>
  <rect x="180" y="160" width="920" height="420" rx="28" fill="#1E1B4B" stroke="#C4B5FD" stroke-width="6"/>
  <g stroke="#F5F3FF" stroke-width="10" stroke-linecap="round">
    <line x1="320" y1="470" x2="510" y2="470"/>
    <line x1="370" y1="470" x2="370" y2="240"/>
    <line x1="370" y1="240" x2="530" y2="240"/>
    <line x1="530" y1="240" x2="530" y2="290"/>
  </g>
  <g stroke="#FDE68A" stroke-width="8" stroke-linecap="round">
    <circle cx="530" cy="330" r="34"/>
    <line x1="530" y1="364" x2="530" y2="438"/>
    <line x1="530" y1="390" x2="490" y2="420"/>
    <line x1="530" y1="390" x2="570" y2="420"/>
    <line x1="530" y1="438" x2="500" y2="486"/>
    <line x1="530" y1="438" x2="560" y2="486"/>
  </g>
  <text x="760" y="330" text-anchor="middle" font-family="Outfit, sans-serif" font-size="64" font-weight="700" fill="#EDE9FE">AHORCADO</text>
  <text x="760" y="408" text-anchor="middle" font-family="Outfit, sans-serif" font-size="40" font-weight="600" fill="#DDD6FE">S _ B _ R</text>
  <text x="640" y="100" text-anchor="middle" font-family="Outfit, sans-serif" font-size="56" font-weight="700" fill="#E9D5FF">Flash de palabras</text>
  <text x="640" y="676" text-anchor="middle" font-family="Outfit, sans-serif" font-size="28" font-weight="600" fill="#C4B5FD">Conocimiento - Adivina antes de 6 fallos</text>
</svg>

