<svg xmlns="http://www.w3.org/2000/svg" width="960" height="540" viewBox="0 0 960 540" fill="none">
  <defs>
    <linearGradient id="bg" x1="120" y1="24" x2="900" y2="530" gradientUnits="userSpaceOnUse">
      <stop stop-color="#0F172A"/>
      <stop offset="1" stop-color="#1D4ED8"/>
    </linearGradient>
    <linearGradient id="panel" x1="120" y1="62" x2="840" y2="482" gradientUnits="userSpaceOnUse">
      <stop stop-color="#111827" stop-opacity="0.96"/>
      <stop offset="1" stop-color="#0B1120" stop-opacity="0.96"/>
    </linearGradient>
  </defs>

  <rect width="960" height="540" fill="url(#bg)"/>
  <circle cx="132" cy="78" r="112" fill="#34D399" fill-opacity="0.2"/>
  <circle cx="836" cy="450" r="176" fill="#22D3EE" fill-opacity="0.14"/>

  <rect x="108" y="54" width="744" height="430" rx="24" fill="url(#panel)" stroke="#7DD3FC" stroke-opacity="0.3"/>
  <text x="152" y="114" fill="#E2E8F0" font-size="44" font-family="Outfit, Arial, sans-serif" font-weight="700">TABLA PERIODICA TOTAL</text>
  <text x="154" y="146" fill="#BFDBFE" font-size="20" font-family="Outfit, Arial, sans-serif">118 empty cells to complete</text>

  <g transform="translate(154 186)">
    <g fill="#0F172A" stroke="#38BDF8" stroke-opacity="0.42">
      <rect x="0" y="0" width="26" height="24" rx="5"/>
      <rect x="420" y="0" width="26" height="24" rx="5"/>
      <rect x="0" y="28" width="26" height="24" rx="5"/>
      <rect x="28" y="28" width="26" height="24" rx="5"/>
      <rect x="280" y="28" width="26" height="24" rx="5"/>
      <rect x="308" y="28" width="26" height="24" rx="5"/>
      <rect x="336" y="28" width="26" height="24" rx="5"/>
      <rect x="364" y="28" width="26" height="24" rx="5"/>
      <rect x="392" y="28" width="26" height="24" rx="5"/>
      <rect x="420" y="28" width="26" height="24" rx="5"/>
      <rect x="0" y="56" width="26" height="24" rx="5"/>
      <rect x="28" y="56" width="26" height="24" rx="5"/>
      <rect x="280" y="56" width="26" height="24" rx="5"/>
      <rect x="308" y="56" width="26" height="24" rx="5"/>
      <rect x="336" y="56" width="26" height="24" rx="5"/>
      <rect x="364" y="56" width="26" height="24" rx="5"/>
      <rect x="392" y="56" width="26" height="24" rx="5"/>
      <rect x="420" y="56" width="26" height="24" rx="5"/>
    </g>

    <rect x="56" y="86" width="390" height="96" rx="10" fill="#082F49" stroke="#22D3EE" stroke-opacity="0.45"/>
    <text x="76" y="116" fill="#BAE6FD" font-size="16" font-family="Outfit, Arial, sans-serif">Complete all symbols:</text>
    <text x="76" y="144" fill="#E2E8F0" font-size="16" font-family="Outfit, Arial, sans-serif">H He Li Be B C N O ... Og</text>
    <text x="76" y="168" fill="#93C5FD" font-size="13" font-family="Outfit, Arial, sans-serif">Input by symbol or element name (ES/EN)</text>
  </g>

  <g transform="translate(640 198)">
    <rect x="0" y="0" width="176" height="220" rx="14" fill="#082F49" stroke="#38BDF8" stroke-opacity="0.45"/>
    <text x="20" y="34" fill="#E0F2FE" font-size="16" font-family="Outfit, Arial, sans-serif" font-weight="700">Progress</text>
    <text x="20" y="70" fill="#BFDBFE" font-size="14" font-family="Outfit, Arial, sans-serif">Solved: 42 / 118</text>
    <text x="20" y="96" fill="#BFDBFE" font-size="14" font-family="Outfit, Arial, sans-serif">Errors: 9</text>
    <rect x="20" y="120" width="136" height="20" rx="10" fill="#0F172A"/>
    <rect x="20" y="120" width="48" height="20" rx="10" fill="#22D3EE"/>
    <text x="20" y="170" fill="#E2E8F0" font-size="14" font-family="Outfit, Arial, sans-serif">Selected cell: Z = 26</text>
    <text x="20" y="194" fill="#BAE6FD" font-size="14" font-family="Outfit, Arial, sans-serif">Input: Fe</text>
  </g>
</svg>
