<svg xmlns="http://www.w3.org/2000/svg" width="960" height="540" viewBox="0 0 960 540" fill="none">
  <defs>
    <linearGradient id="bg" x1="100" y1="40" x2="860" y2="520" gradientUnits="userSpaceOnUse">
      <stop stop-color="#111827"/>
      <stop offset="1" stop-color="#1E3A8A"/>
    </linearGradient>
    <linearGradient id="panel" x1="170" y1="90" x2="790" y2="440" gradientUnits="userSpaceOnUse">
      <stop stop-color="#1E293B" stop-opacity="0.96"/>
      <stop offset="1" stop-color="#0F172A" stop-opacity="0.96"/>
    </linearGradient>
  </defs>

  <rect width="960" height="540" fill="url(#bg)"/>
  <circle cx="160" cy="86" r="118" fill="#22D3EE" fill-opacity="0.2"/>
  <circle cx="834" cy="456" r="178" fill="#38BDF8" fill-opacity="0.17"/>

  <rect x="150" y="72" width="660" height="396" rx="26" fill="url(#panel)" stroke="#7DD3FC" stroke-opacity="0.35"/>
  <text x="194" y="138" fill="#E0F2FE" font-size="47" font-family="Outfit, Arial, sans-serif" font-weight="700">CALCULO MENTAL FLASH 10</text>
  <text x="196" y="173" fill="#BAE6FD" font-size="20" font-family="Outfit, Arial, sans-serif">10 rounds + 40 second total timer</text>

  <g transform="translate(196 218)">
    <rect x="0" y="0" width="404" height="174" rx="20" fill="#0F172A" stroke="#38BDF8" stroke-opacity="0.48"/>
    <text x="34" y="55" fill="#E2E8F0" font-size="30" font-family="Outfit, Arial, sans-serif" font-weight="700">87 + 46 = ?</text>
    <text x="34" y="100" fill="#E2E8F0" font-size="30" font-family="Outfit, Arial, sans-serif" font-weight="700">144 / 12 = ?</text>
    <text x="34" y="145" fill="#E2E8F0" font-size="30" font-family="Outfit, Arial, sans-serif" font-weight="700">9 x 14 = ?</text>
  </g>

  <g transform="translate(626 218)">
    <rect x="0" y="0" width="144" height="48" rx="10" fill="#075985"/>
    <text x="18" y="31" fill="#E0F2FE" font-size="19" font-family="Outfit, Arial, sans-serif" font-weight="700">00:39.6</text>
    <rect x="0" y="64" width="144" height="102" rx="10" fill="#082F49"/>
    <text x="20" y="92" fill="#BAE6FD" font-size="15" font-family="Outfit, Arial, sans-serif">Round 4 / 10</text>
    <text x="20" y="122" fill="#BAE6FD" font-size="15" font-family="Outfit, Arial, sans-serif">Score 3 / 3</text>
    <text x="20" y="152" fill="#BAE6FD" font-size="15" font-family="Outfit, Arial, sans-serif">Accuracy 100%</text>
  </g>

  <rect x="196" y="420" width="574" height="26" rx="13" fill="#0F172A" stroke="#38BDF8" stroke-opacity="0.35"/>
  <rect x="196" y="420" width="412" height="26" rx="13" fill="#0EA5E9" fill-opacity="0.78"/>
</svg>
