<svg width="640" height="360" viewBox="0 0 640 360" fill="none" xmlns="http://www.w3.org/2000/svg">
  <defs>
    <linearGradient id="bg" x1="40" y1="24" x2="604" y2="336" gradientUnits="userSpaceOnUse">
      <stop stop-color="#0B2C45"/>
      <stop offset="1" stop-color="#155E75"/>
    </linearGradient>
    <linearGradient id="card" x1="90" y1="58" x2="550" y2="304" gradientUnits="userSpaceOnUse">
      <stop stop-color="#0F172A" stop-opacity="0.86"/>
      <stop offset="1" stop-color="#1E293B" stop-opacity="0.92"/>
    </linearGradient>
    <linearGradient id="shape" x1="130" y1="102" x2="390" y2="248" gradientUnits="userSpaceOnUse">
      <stop stop-color="#22D3EE"/>
      <stop offset="1" stop-color="#06B6D4"/>
    </linearGradient>
  </defs>

  <rect width="640" height="360" rx="28" fill="url(#bg)"/>
  <rect x="62" y="44" width="516" height="272" rx="22" fill="url(#card)" stroke="#7DD3FC" stroke-opacity="0.28"/>

  <path
    d="M206 222L196 205L206 188L233 183L255 168L285 164L308 171L324 160L347 165L363 182L389 187L402 205L393 226L372 235L352 251L327 252L309 244L284 252L262 246L243 232L206 222Z"
    fill="url(#shape)"
    fill-opacity="0.88"
    stroke="#A5F3FC"
    stroke-width="4"
  />

  <rect x="418" y="112" width="122" height="24" rx="8" fill="#0F172A" stroke="#93C5FD" stroke-opacity="0.66"/>
  <rect x="418" y="148" width="122" height="24" rx="8" fill="#0F172A" stroke="#93C5FD" stroke-opacity="0.66"/>
  <rect x="418" y="184" width="122" height="24" rx="8" fill="#0F172A" stroke="#93C5FD" stroke-opacity="0.66"/>
  <rect x="418" y="220" width="122" height="24" rx="8" fill="#0F172A" stroke="#93C5FD" stroke-opacity="0.66"/>

  <circle cx="430" cy="124" r="5" fill="#22C55E"/>
  <circle cx="430" cy="160" r="5" fill="#F59E0B"/>
  <circle cx="430" cy="196" r="5" fill="#38BDF8"/>
  <circle cx="430" cy="232" r="5" fill="#64748B"/>

  <text x="92" y="88" fill="#E2E8F0" font-family="'Bricolage Grotesque', sans-serif" font-size="22" font-weight="800">
    ADIVINA EL PAIS
  </text>
  <text x="92" y="112" fill="#BAE6FD" font-family="'Bricolage Grotesque', sans-serif" font-size="14" font-weight="600">
    Silueta + recomendaciones en vivo
  </text>
</svg>
