<svg xmlns="http://www.w3.org/2000/svg" viewBox="0 0 1200 675" role="img" aria-labelledby="title desc">
  <title id="title">Neon Dojo Clash cover</title>
  <desc id="desc">Dos luchadores en una arena neon con barras de vida.</desc>
  <defs>
    <linearGradient id="bg2" x1="0%" y1="0%" x2="100%" y2="100%">
      <stop offset="0%" stop-color="#1e1b4b" />
      <stop offset="50%" stop-color="#312e81" />
      <stop offset="100%" stop-color="#0f172a" />
    </linearGradient>
    <linearGradient id="meterPlayer" x1="0%" y1="0%" x2="100%" y2="0%">
      <stop offset="0%" stop-color="#2dd4bf" />
      <stop offset="100%" stop-color="#14b8a6" />
    </linearGradient>
    <linearGradient id="meterEnemy" x1="0%" y1="0%" x2="100%" y2="0%">
      <stop offset="0%" stop-color="#fb7185" />
      <stop offset="100%" stop-color="#ef4444" />
    </linearGradient>
  </defs>
  <rect width="1200" height="675" fill="url(#bg2)" rx="48" />
  <circle cx="260" cy="130" r="180" fill="#38bdf8" fill-opacity="0.13" />
  <circle cx="980" cy="152" r="190" fill="#22d3ee" fill-opacity="0.12" />
  <rect x="0" y="500" width="1200" height="175" fill="#111827" />
  <rect x="150" y="75" width="430" height="34" rx="17" fill="#334155" />
  <rect x="620" y="75" width="430" height="34" rx="17" fill="#334155" />
  <rect x="154" y="79" width="382" height="26" rx="13" fill="url(#meterPlayer)" />
  <rect x="624" y="79" width="348" height="26" rx="13" fill="url(#meterEnemy)" />
  <rect x="360" y="278" width="110" height="230" rx="24" fill="#14b8a6" />
  <rect x="730" y="278" width="110" height="230" rx="24" fill="#ef4444" />
  <rect x="325" y="322" width="38" height="112" rx="16" fill="#99f6e4" />
  <rect x="841" y="322" width="38" height="112" rx="16" fill="#fecaca" />
  <rect x="470" y="332" width="38" height="112" rx="16" fill="#99f6e4" />
  <rect x="692" y="332" width="38" height="112" rx="16" fill="#fecaca" />
  <text x="86" y="182" fill="#e0f2fe" font-family="Verdana, sans-serif" font-size="80" font-weight="700">
    NEON DOJO CLASH
  </text>
</svg>
