<svg width="640" height="360" viewBox="0 0 640 360" fill="none" xmlns="http://www.w3.org/2000/svg">
  <defs>
    <linearGradient id="bg" x1="0" y1="0" x2="640" y2="360" gradientUnits="userSpaceOnUse">
      <stop stop-color="#020617"/>
      <stop offset="1" stop-color="#0F172A"/>
    </linearGradient>
    <linearGradient id="maze" x1="0" y1="0" x2="1" y2="1">
      <stop stop-color="#60A5FA"/>
      <stop offset="1" stop-color="#1D4ED8"/>
    </linearGradient>
  </defs>
  <rect width="640" height="360" fill="url(#bg)"/>
  <g opacity="0.9" stroke="url(#maze)" stroke-width="8" stroke-linecap="round">
    <path d="M48 58H278V138H188V222H352V302H592"/>
    <path d="M48 304H300V178H460V58H592"/>
    <path d="M96 178H156"/>
    <path d="M492 178H552"/>
  </g>
  <g fill="#F8FAFC" opacity="0.92">
    <circle cx="78" cy="58" r="4"/>
    <circle cx="138" cy="58" r="4"/>
    <circle cx="198" cy="58" r="4"/>
    <circle cx="258" cy="58" r="4"/>
    <circle cx="208" cy="222" r="4"/>
    <circle cx="268" cy="222" r="4"/>
    <circle cx="328" cy="222" r="4"/>
    <circle cx="388" cy="222" r="4"/>
    <circle cx="448" cy="222" r="4"/>
    <circle cx="508" cy="222" r="4"/>
    <circle cx="568" cy="222" r="4"/>
  </g>
  <g transform="translate(326 178)">
    <path d="M0 0L-28 -32A44 44 0 1 1 -28 32L0 0Z" fill="#FACC15"/>
    <circle cx="-8" cy="-14" r="5" fill="#020617"/>
  </g>
  <g transform="translate(474 178)">
    <path d="M-26 18C-26 -6 -8 -24 16 -24C40 -24 58 -6 58 18V44H-26V18Z" fill="#EF4444"/>
    <path d="M-26 44L-14 36L-2 44L10 36L22 44L34 36L46 44L58 36V56H-26V44Z" fill="#EF4444"/>
    <ellipse cx="0" cy="14" rx="7" ry="10" fill="#F8FAFC"/>
    <ellipse cx="28" cy="14" rx="7" ry="10" fill="#F8FAFC"/>
    <circle cx="3" cy="16" r="3" fill="#0F172A"/>
    <circle cx="31" cy="16" r="3" fill="#0F172A"/>
  </g>
  <text x="48" y="336" fill="#E2E8F0" font-size="30" font-family="Bricolage Grotesque, sans-serif" font-weight="700">Pac-Man Maze Protocol</text>
</svg>
