<svg xmlns="http://www.w3.org/2000/svg" viewBox="0 0 1200 675" role="img" aria-labelledby="title desc">
  <title id="title">Sky Runner DX cover</title>
  <desc id="desc">Plataformas flotantes con heroe y bandera de meta.</desc>
  <defs>
    <linearGradient id="bg" x1="0%" y1="0%" x2="100%" y2="100%">
      <stop offset="0%" stop-color="#67e8f9" />
      <stop offset="55%" stop-color="#38bdf8" />
      <stop offset="100%" stop-color="#0f766e" />
    </linearGradient>
    <linearGradient id="ground" x1="0%" y1="0%" x2="0%" y2="100%">
      <stop offset="0%" stop-color="#9a6f4d" />
      <stop offset="100%" stop-color="#6d4c38" />
    </linearGradient>
  </defs>
  <rect width="1200" height="675" fill="url(#bg)" rx="48" />
  <ellipse cx="200" cy="130" rx="130" ry="42" fill="#ffffff" fill-opacity="0.55" />
  <ellipse cx="910" cy="180" rx="150" ry="50" fill="#ffffff" fill-opacity="0.45" />
  <rect x="0" y="540" width="1200" height="135" fill="#166534" />
  <rect x="140" y="460" width="240" height="52" rx="12" fill="url(#ground)" />
  <rect x="470" y="390" width="220" height="52" rx="12" fill="url(#ground)" />
  <rect x="800" y="320" width="210" height="52" rx="12" fill="url(#ground)" />
  <rect x="265" y="414" width="56" height="72" rx="8" fill="#fef3c7" stroke="#fffbeb" stroke-width="8" />
  <circle cx="293" cy="438" r="10" fill="#f59e0b" />
  <rect x="112" y="498" width="46" height="60" rx="8" fill="#14b8a6" />
  <rect x="910" y="232" width="16" height="88" fill="#f1f5f9" />
  <path d="M926 236 L992 256 L926 276 Z" fill="#f97316" />
  <text x="72" y="112" fill="#f0fdfa" font-family="Verdana, sans-serif" font-size="84" font-weight="700">
    SKY RUNNER DX
  </text>
</svg>
