<svg width="1200" height="675" viewBox="0 0 1200 675" xmlns="http://www.w3.org/2000/svg">
  <defs>
    <linearGradient id="bg" x1="0" y1="0" x2="1" y2="1">
      <stop offset="0%" stop-color="#0f172a"/>
      <stop offset="100%" stop-color="#1f2937"/>
    </linearGradient>
    <linearGradient id="gold" x1="0" y1="0" x2="1" y2="1">
      <stop offset="0%" stop-color="#fbbf24"/>
      <stop offset="100%" stop-color="#d97706"/>
    </linearGradient>
    <linearGradient id="light" x1="0" y1="0" x2="1" y2="1">
      <stop offset="0%" stop-color="#fef3c7"/>
      <stop offset="100%" stop-color="#f59e0b"/>
    </linearGradient>
    <linearGradient id="dark" x1="0" y1="0" x2="1" y2="1">
      <stop offset="0%" stop-color="#111827"/>
      <stop offset="100%" stop-color="#374151"/>
    </linearGradient>
  </defs>

  <rect width="1200" height="675" fill="url(#bg)"/>
  <circle cx="210" cy="130" r="180" fill="#1d4ed8" opacity="0.2"/>
  <circle cx="1030" cy="560" r="220" fill="#f59e0b" opacity="0.18"/>

  <g transform="translate(325 70)">
    <rect x="0" y="0" width="550" height="550" rx="30" fill="#6b3f1f" stroke="#fcd34d" stroke-width="8"/>
    <g transform="translate(27 27)">
      <rect width="496" height="496" rx="18" fill="#f4d8a5"/>
      <g fill="#7c3f19">
        <rect x="62" y="0" width="62" height="62"/>
        <rect x="186" y="0" width="62" height="62"/>
        <rect x="310" y="0" width="62" height="62"/>
        <rect x="434" y="0" width="62" height="62"/>
        <rect x="0" y="62" width="62" height="62"/>
        <rect x="124" y="62" width="62" height="62"/>
        <rect x="248" y="62" width="62" height="62"/>
        <rect x="372" y="62" width="62" height="62"/>
        <rect x="62" y="124" width="62" height="62"/>
        <rect x="186" y="124" width="62" height="62"/>
        <rect x="310" y="124" width="62" height="62"/>
        <rect x="434" y="124" width="62" height="62"/>
        <rect x="0" y="186" width="62" height="62"/>
        <rect x="124" y="186" width="62" height="62"/>
        <rect x="248" y="186" width="62" height="62"/>
        <rect x="372" y="186" width="62" height="62"/>
        <rect x="62" y="248" width="62" height="62"/>
        <rect x="186" y="248" width="62" height="62"/>
        <rect x="310" y="248" width="62" height="62"/>
        <rect x="434" y="248" width="62" height="62"/>
        <rect x="0" y="310" width="62" height="62"/>
        <rect x="124" y="310" width="62" height="62"/>
        <rect x="248" y="310" width="62" height="62"/>
        <rect x="372" y="310" width="62" height="62"/>
        <rect x="62" y="372" width="62" height="62"/>
        <rect x="186" y="372" width="62" height="62"/>
        <rect x="310" y="372" width="62" height="62"/>
        <rect x="434" y="372" width="62" height="62"/>
        <rect x="0" y="434" width="62" height="62"/>
        <rect x="124" y="434" width="62" height="62"/>
        <rect x="248" y="434" width="62" height="62"/>
        <rect x="372" y="434" width="62" height="62"/>
      </g>
    </g>
  </g>

  <g transform="translate(450 228)">
    <circle cx="0" cy="0" r="42" fill="url(#light)"/>
    <circle cx="0" cy="0" r="34" fill="#fef9c3" opacity="0.7"/>
    <path d="M-16 -8L-9 -22L0 -8L9 -22L16 -8V8H-16Z" fill="#92400e"/>
  </g>

  <g transform="translate(565 292)">
    <circle cx="0" cy="0" r="42" fill="url(#dark)"/>
    <circle cx="0" cy="0" r="34" fill="#1f2937" opacity="0.85"/>
  </g>

  <g transform="translate(682 354)">
    <circle cx="0" cy="0" r="42" fill="url(#dark)"/>
    <circle cx="0" cy="0" r="34" fill="#111827" opacity="0.9"/>
    <path d="M-16 -8L-9 -22L0 -8L9 -22L16 -8V8H-16Z" fill="url(#gold)"/>
  </g>

  <text x="86" y="168" fill="#fde68a" font-family="Outfit, sans-serif" font-size="48" font-weight="700">Estrategia</text>
  <text x="86" y="238" fill="#ffffff" font-family="Bricolage Grotesque, sans-serif" font-size="64" font-weight="800">Damas Pro Arena</text>
  <text x="86" y="300" fill="#cbd5e1" font-family="Outfit, sans-serif" font-size="30" font-weight="500">
    Capturas multiples, IA por niveles y reglas competitivas
  </text>

  <rect x="82" y="348" width="278" height="64" rx="16" fill="#111827" stroke="#fbbf24" stroke-width="2"/>
  <text x="106" y="389" fill="#fde68a" font-family="Outfit, sans-serif" font-size="30" font-weight="700">8x8 | 12 vs 12</text>
</svg>
