<svg width="1280" height="720" viewBox="0 0 1280 720" fill="none" xmlns="http://www.w3.org/2000/svg">
  <defs>
    <linearGradient id="bg" x1="120" y1="40" x2="1160" y2="680" gradientUnits="userSpaceOnUse">
      <stop stop-color="#0F172A"/>
      <stop offset="0.55" stop-color="#134E4A"/>
      <stop offset="1" stop-color="#78350F"/>
    </linearGradient>
    <linearGradient id="cell" x1="0" y1="0" x2="1" y2="1">
      <stop stop-color="#E2E8F0"/>
      <stop offset="1" stop-color="#CBD5E1"/>
    </linearGradient>
    <linearGradient id="fixed" x1="0" y1="0" x2="1" y2="1">
      <stop stop-color="#BAE6FD"/>
      <stop offset="1" stop-color="#7DD3FC"/>
    </linearGradient>
    <filter id="shadow" x="-20%" y="-20%" width="140%" height="140%">
      <feDropShadow dx="0" dy="12" stdDeviation="16" flood-color="#020617" flood-opacity="0.45"/>
    </filter>
  </defs>

  <rect width="1280" height="720" rx="36" fill="url(#bg)"/>
  <circle cx="1040" cy="140" r="220" fill="#22D3EE" fill-opacity="0.12"/>
  <circle cx="240" cy="620" r="200" fill="#F59E0B" fill-opacity="0.14"/>

  <g filter="url(#shadow)">
    <rect x="350" y="92" width="580" height="580" rx="28" fill="#0B1224" fill-opacity="0.84" stroke="#67E8F9" stroke-width="4"/>
    <g transform="translate(380 122)">
      <rect width="520" height="520" rx="16" fill="#0F172A"/>
      <g stroke="#334155" stroke-width="1.2">
        <line x1="57.78" y1="0" x2="57.78" y2="520"/>
        <line x1="115.56" y1="0" x2="115.56" y2="520"/>
        <line x1="173.33" y1="0" x2="173.33" y2="520"/>
        <line x1="231.11" y1="0" x2="231.11" y2="520"/>
        <line x1="288.89" y1="0" x2="288.89" y2="520"/>
        <line x1="346.67" y1="0" x2="346.67" y2="520"/>
        <line x1="404.44" y1="0" x2="404.44" y2="520"/>
        <line x1="462.22" y1="0" x2="462.22" y2="520"/>
        <line x1="0" y1="57.78" x2="520" y2="57.78"/>
        <line x1="0" y1="115.56" x2="520" y2="115.56"/>
        <line x1="0" y1="173.33" x2="520" y2="173.33"/>
        <line x1="0" y1="231.11" x2="520" y2="231.11"/>
        <line x1="0" y1="288.89" x2="520" y2="288.89"/>
        <line x1="0" y1="346.67" x2="520" y2="346.67"/>
        <line x1="0" y1="404.44" x2="520" y2="404.44"/>
        <line x1="0" y1="462.22" x2="520" y2="462.22"/>
      </g>
      <g stroke="#06B6D4" stroke-width="4">
        <line x1="173.33" y1="0" x2="173.33" y2="520"/>
        <line x1="346.67" y1="0" x2="346.67" y2="520"/>
        <line x1="0" y1="173.33" x2="520" y2="173.33"/>
        <line x1="0" y1="346.67" x2="520" y2="346.67"/>
      </g>

      <rect x="0" y="0" width="57.78" height="57.78" fill="url(#fixed)"/>
      <rect x="57.78" y="0" width="57.78" height="57.78" fill="url(#cell)"/>
      <rect x="115.56" y="57.78" width="57.78" height="57.78" fill="url(#cell)"/>
      <rect x="231.11" y="231.11" width="57.78" height="57.78" fill="#FDE68A"/>
      <rect x="288.89" y="231.11" width="57.78" height="57.78" fill="#FEF3C7"/>

      <g fill="#0F172A" font-family="Bricolage Grotesque, sans-serif" font-weight="800" font-size="34">
        <text x="20" y="41">9</text>
        <text x="78" y="41">1</text>
        <text x="136" y="98">7</text>
        <text x="252" y="271">4</text>
        <text x="310" y="271">6</text>
      </g>
    </g>
  </g>

  <g fill="#E2E8F0" font-family="Bricolage Grotesque, sans-serif">
    <text x="82" y="136" font-size="58" font-weight="800">Sudoku Tecnicas Pro</text>
    <text x="82" y="192" font-size="26" font-weight="600" fill="#BAE6FD">Estrategia logica 9x9 con pistas y deteccion de conflictos</text>
    <text x="82" y="546" font-size="22" font-weight="600" fill="#FDE68A">Grupo completo · Barrido · Barrido sobre linea · Recuento</text>
    <text x="82" y="586" font-size="19" font-weight="500" fill="#E2E8F0">Plataforma Juegos SaaS</text>
  </g>
</svg>
