<svg width="512" height="320" viewBox="0 0 512 320" fill="none" xmlns="http://www.w3.org/2000/svg">
  <rect width="512" height="320" rx="32" fill="url(#bg)"/>
  <circle cx="394" cy="92" r="48" fill="url(#sun)"/>
  <path d="M0 153L58 128L105 145L166 108L226 148L280 116L344 154L408 126L468 150L512 132V214H0V153Z" fill="#111827" fill-opacity="0.72"/>
  <rect x="42" y="58" width="126" height="26" rx="13" fill="#0F172A" fill-opacity="0.52"/>
  <path d="M142 318L210 146H302L370 318H142Z" fill="#111827" fill-opacity="0.88"/>
  <path d="M166 318L223 166H289L346 318H166Z" fill="url(#road)"/>
  <path d="M250 168H262V318H250V168Z" fill="#F8FAFC" fill-opacity="0.92"/>
  <path d="M250 190H262V224H250V190Z" fill="#FB7185"/>
  <path d="M250 246H262V280H250V246Z" fill="#FB7185"/>
  <path d="M250 302H262V318H250V302Z" fill="#FB7185"/>
  <path d="M115 258C131 240 152 228 176 224C165 245 163 268 170 292H112C106 280 106 268 115 258Z" fill="#F97316"/>
  <rect x="134" y="236" width="41" height="58" rx="10" fill="#FDBA74"/>
  <rect x="143" y="248" width="23" height="27" rx="7" fill="#0F172A" fill-opacity="0.75"/>
  <rect x="140" y="241" width="9" height="8" rx="4" fill="#FFF7ED"/>
  <rect x="159" y="241" width="9" height="8" rx="4" fill="#FFF7ED"/>
  <path d="M334 215C355 191 382 177 411 174C396 201 391 228 396 257H331C324 244 324 229 334 215Z" fill="#38BDF8" fill-opacity="0.78"/>
  <rect x="351" y="191" width="36" height="50" rx="10" fill="#7DD3FC"/>
  <rect x="359" y="201" width="20" height="23" rx="6" fill="#0F172A" fill-opacity="0.72"/>
  <rect x="357" y="196" width="8" height="7" rx="3.5" fill="#FFF7ED"/>
  <rect x="373" y="196" width="8" height="7" rx="3.5" fill="#FFF7ED"/>
  <path d="M104 56H149" stroke="#FDBA74" stroke-width="2.5" stroke-linecap="round"/>
  <path d="M72 71H149" stroke="#FFF7ED" stroke-opacity="0.86" stroke-width="2.5" stroke-linecap="round"/>
  <path d="M72 86H134" stroke="#FFF7ED" stroke-opacity="0.64" stroke-width="2.5" stroke-linecap="round"/>
  <defs>
    <linearGradient id="bg" x1="82" y1="20" x2="449" y2="299" gradientUnits="userSpaceOnUse">
      <stop stop-color="#07111F"/>
      <stop offset="0.4" stop-color="#1E3A5F"/>
      <stop offset="0.73" stop-color="#F97316"/>
      <stop offset="1" stop-color="#FDE68A"/>
    </linearGradient>
    <linearGradient id="sun" x1="394" y1="44" x2="394" y2="140" gradientUnits="userSpaceOnUse">
      <stop stop-color="#FFF7ED"/>
      <stop offset="1" stop-color="#FDBA74"/>
    </linearGradient>
    <linearGradient id="road" x1="256" y1="166" x2="256" y2="318" gradientUnits="userSpaceOnUse">
      <stop stop-color="#1F2937"/>
      <stop offset="1" stop-color="#0F172A"/>
    </linearGradient>
  </defs>
</svg>
